 http://img696.imageshack.us/img696/9647/marsneedsmomscharacterp.jpg

Country.......: USA
Genre.........: Animation, Action, Adventure, Comedy, Family, Sci-Fi
Date release..: 09.03.2011 [World]
Director......: Simon Wells
Writers.......: Simon Wells, Wendy Wells
Duration......: 84 min.
More..........: http://www.imdb.com/title/tt1305591
Trailer.......: http://www.imdb.com/video/imdb/vi1901959705
Trailer.......:

Pilot :
A young boy named Milo gains a deeper appreciation for his mom after Martians come to Earth to take her away. 

Cats :
Seth Green   	 ...  	Milo
Dan Fogler 	... 	Gribble
Joan Cusack 	... 	Mom
Elisabeth Harnois 	... 	Ki
Mindy Sterling 	... 	Supervisor
Kevin Cahoon 	... 	Wingnut
Tom Everett Scott 	... 	Dad
Jacquie Barnbrook 	... 	Martian
Matthew Henerson 	... 	Martian
Adam Jennings 	... 	Martian
Stephen Kearin 	... 	Martian
Amber Gainey Meade 	... 	Martian
Aaron Rapke 	... 	Martian
Julene Renee 	... 	Martian
Kirsten Severson 	... 	Martian 

Data Technical :
!!! SAMPLE !!!
Audio.....: English
Subtitles.: None
Format                           : AVI
Format/Info                      : Audio Video Interleave
File size                        : 700 MiB
Duration                         : 1h 24mn
Overall bit rate                 : 1 159 Kbps
Writing application              : VirtualDubMod 1.5.10.2 (build 2542/release)
Writing library                  : VirtualDubMod build 2542/release
Video
ID                               : 0
Format                           : MPEG-4 Visual
Format profile                   : Simple@L3
Format settings, BVOP            : No
Format settings, QPel            : No
Format settings, GMC             : No warppoints
Format settings, Matrix          : Default (H.263)
Codec ID                         : XVID
Codec ID/Hint                    : XviD
Duration                         : 1h 24mn
Bit rate                         : 1 022 Kbps
Width                            : 640 pixels
Height                           : 256 pixels
Display aspect ratio             : 2.500
Frame rate                       : 25.000 fps
Color space                      : YUV
Chroma subsampling               : 4:2:0
Bit depth                        : 8 bits
Scan type                        : Progressive
Bits/(Pixel*Frame)               : 0.250
Stream size                      : 618 MiB (88%)
Writing library                  : XviD 1.2.1 (UTC 2008-12-04)
Audio
ID                               : 1
Format                           : MPEG Audio
Format version                   : Version 1
Format profile                   : Layer 3
Mode                             : Joint stereo
Mode extension                   : MS Stereo
Codec ID                         : 55
Codec ID/Hint                    : MP3
Duration                         : 1h 24mn
Bit rate mode                    : Variable
Bit rate                         : 128 Kbps
Channel(s)                       : 2 channels
Sampling rate                    : 48.0 KHz
Stream size                      : 74.5 MiB (11%)
Alignment                        : Aligned on interleaves
Interleave, duration             : 24 ms (0.60 video frame)
Interleave, preload duration     : 333 ms
Writing library                  : LAME3.97 
Encoding settings                : -m j -V 4 -q 3 -lowpass 17 --abr 128

Screen : 
http://img863.imageshack.us/img863/5474/marsneedsmoms2011s1.jpg 
http://img821.imageshack.us/img821/4788/marsneedsmoms2011s2.jpg 
http://img809.imageshack.us/img809/4998/marsneedsmoms2011s3.jpg 
http://img202.imageshack.us/img202/948/marsneedsmoms2011s4.jpg 
http://img155.imageshack.us/img155/254/marsneedsmoms2011s5.jpg